<svg width="540" height="539" viewBox="0 0 540 539" fill="none" xmlns="http://www.w3.org/2000/svg">
<g filter="url(#filter0_d_10_4)">
<path fill-rule="evenodd" clip-rule="evenodd" d="M9.36943 527.157C6.38349 527.135 3.97958 524.524 4.00013 521.326L4.08587 507.981C4.10401 505.157 6.02032 502.759 8.62186 502.304L41.1531 496.619L41.1692 496.616C56.4099 493.849 67.5075 489.473 74.9186 483.85C82.343 477.726 88.3075 469.055 92.689 457.551L92.7053 457.508L234.727 92.9418L221.205 54.2052C220.598 52.4657 220.807 50.5198 221.765 48.9727C222.724 47.4255 224.318 46.4648 226.05 46.3892C234.78 46.0083 241.707 43.434 247.148 38.9534C253.122 33.5255 257.473 27.7739 260.353 21.7329C263.462 14.705 264.738 9.45651 264.761 5.75218C264.782 2.5534 267.219 -0.0218776 270.205 0.000140137L276.433 0.0460666C278.622 0.062208 280.586 1.49081 281.408 3.66454L447.455 443.073C455.5 464.562 463.504 478.329 471.154 485.39C479.517 492.169 490.396 497.122 504.014 500.05L504.047 500.057L531.69 506.192C534.214 506.752 536.018 509.142 536 511.903L535.914 525.248C535.894 528.447 533.456 531.022 530.47 531L302.791 529.321C299.806 529.299 297.402 526.688 297.422 523.489L297.508 510.145C297.526 507.313 299.452 504.911 302.062 504.465L339.529 498.059C354.296 495.699 363.551 492.917 368.142 490.093C372.346 487.507 373.8 484.563 373.822 481.051C373.842 478.008 373.145 474.009 371.457 468.927C369.651 463.488 367.621 457.315 365.368 450.408L332.523 359.76L168.187 358.548L126.862 463.719C125.543 466.954 124.446 470.176 123.568 473.383C123.546 473.464 123.522 473.544 123.497 473.623C122.696 476.141 122.361 478.23 122.35 479.939C122.323 484.124 123.626 486.644 126.015 488.418C129.797 490.855 135.464 492.931 143.345 494.398L143.438 494.416L188.363 503.644C190.924 504.17 192.769 506.579 192.751 509.372L192.666 522.717C192.645 525.916 190.208 528.491 187.222 528.469L9.36943 527.157ZM123.086 493.289C120.128 491.145 118.238 488.249 117.417 484.602C117.09 483.153 116.932 481.585 116.943 479.899C116.959 477.427 117.438 474.713 118.38 471.754C119.325 468.301 120.5 464.85 121.907 461.4L164.607 352.73L336.234 353.995L370.442 448.405C372.704 455.341 374.74 461.535 376.551 466.985C378.361 472.435 379.254 477.137 379.229 481.091C379.224 481.858 379.173 482.604 379.075 483.328C378.421 488.21 375.674 492.139 370.834 495.116C365.275 498.535 355.106 501.425 340.327 503.788L303.026 510.166L302.914 510.185L302.829 523.529L530.508 525.208L530.52 523.231L530.593 511.863L502.95 505.728C488.667 502.657 476.936 497.381 467.757 489.9C459.042 481.927 450.602 467.037 442.437 445.229L276.396 5.83797L270.168 5.79204C270.136 10.7345 268.482 16.9006 265.205 24.2904C261.931 31.186 257.045 37.5754 250.548 43.4587C245.343 47.7781 239.111 50.5022 231.852 51.6312C230.396 51.8576 228.898 52.0199 227.36 52.118C226.999 52.141 226.635 52.1605 226.27 52.1764L239.823 91.0036L240.54 93.0586L97.695 459.739C93.002 472.061 86.4811 481.651 78.1323 488.509C69.7866 494.873 57.7612 499.48 42.056 502.33L9.49238 508.021L9.41933 519.39L9.40664 521.365L187.259 522.677L187.345 509.332L186.988 509.259L142.42 500.104C134.125 498.56 127.68 496.289 123.086 493.289ZM173.902 329.073L327.615 330.207L326.637 327.509L253.659 126.097L174.956 326.391L173.902 329.073ZM253.455 141.543L182.021 323.341L319.695 324.356L253.455 141.543Z" fill="white"/>
<path fill-rule="evenodd" clip-rule="evenodd" d="M8.42596 505.988L8.33987 519.382L9.41933 519.39L9.49238 508.021L42.056 502.33C57.7612 499.48 69.7866 494.873 78.1323 488.509C86.4811 481.651 93.002 472.061 97.695 459.739L240.54 93.0586L239.823 91.0036L96.9864 457.528C92.2744 469.896 85.7271 479.521 77.3443 486.405C68.9648 492.792 56.8906 497.416 41.1217 500.276L8.42596 505.988ZM187 507.305L186.988 509.259L142.42 500.104C134.125 498.56 127.68 496.289 123.086 493.289C120.128 491.145 118.238 488.249 117.417 484.602C118.42 487.283 120.108 489.483 122.48 491.202C127.093 494.213 133.564 496.493 141.893 498.042L187 507.305ZM164.17 350.124L168.836 338.252L163.69 350.12L164.17 350.124ZM174.956 326.391L173.902 329.073L327.615 330.207L326.637 327.509L174.956 326.391ZM371.233 493.036C375.37 490.493 377.984 487.257 379.075 483.328C378.421 488.21 375.674 492.139 370.834 495.116C365.275 498.535 355.106 501.425 340.327 503.788L303.026 510.166L303.038 508.16L340.603 501.74C355.442 499.368 365.652 496.467 371.233 493.036ZM531.555 523.239L530.52 523.231L530.593 511.863L502.95 505.728C488.667 502.657 476.936 497.381 467.757 489.9C459.042 481.927 450.602 467.037 442.437 445.229L276.396 5.83797L270.168 5.79204C270.136 10.7345 268.482 16.9006 265.205 24.2904C261.931 31.186 257.045 37.5754 250.548 43.4587C245.343 47.7781 239.111 50.5022 231.852 51.6312C230.396 51.8576 228.898 52.0199 227.36 52.118L226.083 48.4609C235.814 48.0366 243.939 45.1199 250.46 39.711C256.983 33.806 261.888 27.393 265.176 20.4719C268.466 13.0548 270.127 6.86597 270.159 1.9053L276.413 1.9514L443.127 442.964C451.325 464.853 459.799 479.798 468.549 487.8C477.766 495.309 489.545 500.605 503.886 503.687L531.641 509.845L531.555 523.239Z" fill="white"/>
<path d="M327.615 330.207L173.902 329.073L174.956 326.391L173.503 326.38L168.836 338.252L164.17 350.124L336.493 351.394L329.958 333.363L327.839 327.518L326.637 327.509L327.615 330.207Z" fill="#A43838"/>
<path d="M376.974 464.801C378.792 470.271 379.688 474.991 379.662 478.959C379.652 480.5 379.457 481.957 379.075 483.328C378.421 488.21 375.674 492.139 370.834 495.116C365.275 498.535 355.106 501.425 340.327 503.788L303.026 510.166L302.952 521.554L530.52 523.231L530.593 511.863L502.95 505.728C488.667 502.657 476.936 497.381 467.757 489.9C459.042 481.927 450.602 467.037 442.437 445.229L276.396 5.83797L270.168 5.79204C270.136 10.7345 268.482 16.9006 265.205 24.2904C261.931 31.186 257.045 37.5754 250.548 43.4587C245.343 47.7781 239.111 50.5022 231.852 51.6312C230.396 51.8576 228.898 52.0199 227.36 52.118L240.411 89.494L239.823 91.0036L240.54 93.0586L97.695 459.739C93.002 472.061 86.4811 481.651 78.1323 488.509C69.7866 494.873 57.7612 499.48 42.056 502.33L9.49238 508.021L9.41933 519.39L186.914 520.698L186.988 509.259L142.42 500.104C134.125 498.56 127.68 496.289 123.086 493.289C120.128 491.145 118.238 488.249 117.417 484.602C116.664 482.592 116.296 480.313 116.313 477.762C116.329 475.282 116.81 472.557 117.755 469.587C118.704 466.122 119.884 462.658 121.296 459.196L164.17 350.124L163.69 350.12L168.836 338.252L173.503 326.38L253.583 122.654L327.839 327.518L329.958 333.363L336.493 351.394L370.84 446.152C373.111 453.114 375.156 459.33 376.974 464.801Z" fill="#A43838"/>
</g>
<defs>
<filter id="filter0_d_10_4" x="0" y="0" width="540" height="539" filterUnits="userSpaceOnUse" color-interpolation-filters="sRGB">
<feFlood flood-opacity="0" result="BackgroundImageFix"/>
<feColorMatrix in="SourceAlpha" type="matrix" values="0 0 0 0 0 0 0 0 0 0 0 0 0 0 0 0 0 0 127 0" result="hardAlpha"/>
<feOffset dy="4"/>
<feGaussianBlur stdDeviation="2"/>
<feComposite in2="hardAlpha" operator="out"/>
<feColorMatrix type="matrix" values="0 0 0 0 0 0 0 0 0 0 0 0 0 0 0 0 0 0 0.5 0"/>
<feBlend mode="normal" in2="BackgroundImageFix" result="effect1_dropShadow_10_4"/>
<feBlend mode="normal" in="SourceGraphic" in2="effect1_dropShadow_10_4" result="shape"/>
</filter>
</defs>
</svg>
